<svg viewBox="0 0 100 100" xmlns="http://www.w3.org/2000/svg">
  <defs>
    <linearGradient id="boBody" x1="0" y1="0" x2="0" y2="1"><stop offset="0" stop-color="#d18aff"/><stop offset="1" stop-color="#6a2fb0"/></linearGradient>
    <radialGradient id="boEye" cx="0.5" cy="0.45" r="0.6"><stop offset="0" stop-color="#fff"/><stop offset="0.5" stop-color="#ff5a8a"/><stop offset="1" stop-color="#8a1238"/></radialGradient>
  </defs>
  <ellipse cx="50" cy="93" rx="34" ry="6" fill="#000" opacity="0.22"/>
  <path d="M22 40 Q8 24 10 8 Q24 18 30 34 Z" fill="#7a3fd0" stroke="#2c1466" stroke-width="3" stroke-linejoin="round"/>
  <path d="M78 40 Q92 24 90 8 Q76 18 70 34 Z" fill="#7a3fd0" stroke="#2c1466" stroke-width="3" stroke-linejoin="round"/>
  <path d="M18 58 Q14 24 50 20 Q86 24 82 58 Q86 84 64 86 Q60 94 50 88 Q40 94 36 86 Q14 84 18 58 Z" fill="url(#boBody)" stroke="#2c1466" stroke-width="4" stroke-linejoin="round"/>
  <path d="M30 24 L36 8 L42 22 L50 6 L58 22 L64 8 L70 24 Q50 18 30 24 Z" fill="#ffd23a" stroke="#9c7a12" stroke-width="2.5" stroke-linejoin="round"/>
  <ellipse cx="40" cy="44" rx="12" ry="7" fill="#fff" opacity="0.3" transform="rotate(-20 40 44)"/>
  <path d="M30 48 L46 54" stroke="#2c1466" stroke-width="5" stroke-linecap="round"/>
  <path d="M70 48 L54 54" stroke="#2c1466" stroke-width="5" stroke-linecap="round"/>
  <ellipse cx="39" cy="60" rx="8" ry="10" fill="#fff" stroke="#2c1466" stroke-width="2.5"/>
  <ellipse cx="61" cy="60" rx="8" ry="10" fill="#fff" stroke="#2c1466" stroke-width="2.5"/>
  <circle cx="40" cy="62" r="4.6" fill="url(#boEye)"/><circle cx="60" cy="62" r="4.6" fill="url(#boEye)"/>
  <circle cx="41.5" cy="60" r="1.5" fill="#fff"/><circle cx="61.5" cy="60" r="1.5" fill="#fff"/>
  <path d="M38 76 Q50 70 62 76 Q50 86 38 76 Z" fill="#3a0f24" stroke="#2c1466" stroke-width="2.5" stroke-linejoin="round"/>
  <path d="M42 74 L44 80 M50 73 L50 81 M58 74 L56 80" stroke="#fff" stroke-width="1.8"/>
</svg>
