<svg viewBox="0 0 100 100" xmlns="http://www.w3.org/2000/svg">
  <defs>
    <linearGradient id="gBody" x1="0" y1="0" x2="0" y2="1">
      <stop offset="0" stop-color="#9aa3ad"/>
      <stop offset="1" stop-color="#5b6671"/>
    </linearGradient>
  </defs>
  <ellipse cx="50" cy="93" rx="34" ry="6" fill="#000" opacity="0.2"/>
  <rect x="30" y="76" width="14" height="16" rx="5" fill="#5b6671" stroke="#2f3942" stroke-width="3"/>
  <rect x="56" y="76" width="14" height="16" rx="5" fill="#5b6671" stroke="#2f3942" stroke-width="3"/>
  <circle cx="20" cy="62" r="11" fill="url(#gBody)" stroke="#2f3942" stroke-width="3"/>
  <circle cx="80" cy="62" r="11" fill="url(#gBody)" stroke="#2f3942" stroke-width="3"/>
  <path d="M26 46 Q24 30 50 30 Q76 30 74 46 L78 76 Q50 84 22 76 Z" fill="url(#gBody)" stroke="#2f3942" stroke-width="3.5" stroke-linejoin="round"/>
  <ellipse cx="50" cy="60" rx="16" ry="13" fill="#b9c2cc" opacity="0.55"/>
  <path d="M30 38 l6 -4 4 5 -6 3 Z" fill="#7c8893" stroke="#2f3942" stroke-width="1.5" stroke-linejoin="round"/>
  <path d="M66 36 l6 2 -2 6 -6 -2 Z" fill="#7c8893" stroke="#2f3942" stroke-width="1.5" stroke-linejoin="round"/>
  <path d="M30 44 L46 50" stroke="#2f3942" stroke-width="5" stroke-linecap="round"/>
  <path d="M70 44 L54 50" stroke="#2f3942" stroke-width="5" stroke-linecap="round"/>
  <ellipse cx="40" cy="56" rx="6" ry="7" fill="#fff" stroke="#2f3942" stroke-width="2"/>
  <ellipse cx="60" cy="56" rx="6" ry="7" fill="#fff" stroke="#2f3942" stroke-width="2"/>
  <circle cx="41" cy="58" r="3.2" fill="#c0392b"/>
  <circle cx="59" cy="58" r="3.2" fill="#c0392b"/>
  <circle cx="42" cy="56.6" r="1" fill="#fff"/>
  <circle cx="60" cy="56.6" r="1" fill="#fff"/>
  <path d="M40 70 Q50 66 60 70" fill="none" stroke="#2f3942" stroke-width="3" stroke-linecap="round"/>
  <path d="M42 70 L40 76 L45 72 Z" fill="#fff" stroke="#2f3942" stroke-width="1.5" stroke-linejoin="round"/>
  <path d="M58 70 L60 76 L55 72 Z" fill="#fff" stroke="#2f3942" stroke-width="1.5" stroke-linejoin="round"/>
</svg>