<svg viewBox="0 0 100 100" xmlns="http://www.w3.org/2000/svg">
  <defs>
    <linearGradient id="sBody" x1="0" y1="0" x2="0" y2="1">
      <stop offset="0" stop-color="#7be86a"/>
      <stop offset="1" stop-color="#3da82f"/>
    </linearGradient>
  </defs>
  <ellipse cx="50" cy="90" rx="30" ry="6" fill="#000" opacity="0.18"/>
  <path d="M16 64 Q14 30 50 26 Q86 30 84 64 Q86 82 70 84 Q72 76 64 78 Q66 86 56 84 Q58 90 50 86 Q42 90 44 84 Q34 86 36 78 Q28 76 30 84 Q14 82 16 64 Z" fill="url(#sBody)" stroke="#1f6a16" stroke-width="3.5" stroke-linejoin="round"/>
  <ellipse cx="38" cy="42" rx="10" ry="6" fill="#ffffff" opacity="0.45" transform="rotate(-25 38 42)"/>
  <path d="M30 44 L44 50" stroke="#1f6a16" stroke-width="4" stroke-linecap="round"/>
  <path d="M70 44 L56 50" stroke="#1f6a16" stroke-width="4" stroke-linecap="round"/>
  <ellipse cx="40" cy="58" rx="7" ry="8" fill="#fff" stroke="#1f6a16" stroke-width="2"/>
  <ellipse cx="60" cy="58" rx="7" ry="8" fill="#fff" stroke="#1f6a16" stroke-width="2"/>
  <circle cx="41" cy="60" r="3.6" fill="#222"/>
  <circle cx="59" cy="60" r="3.6" fill="#222"/>
  <circle cx="42.2" cy="58.6" r="1.2" fill="#fff"/>
  <circle cx="60.2" cy="58.6" r="1.2" fill="#fff"/>
  <path d="M42 70 Q50 65 58 70 Q50 76 42 70 Z" fill="#7a1f1f" stroke="#1f6a16" stroke-width="2" stroke-linejoin="round"/>
  <path d="M45 67.5 L46 71 M50 66.5 L50 72 M55 67.5 L54 71" stroke="#fff" stroke-width="1.5"/>
</svg>