<svg viewBox="0 0 100 100" xmlns="http://www.w3.org/2000/svg">
  <defs>
    <linearGradient id="iBody" x1="0" y1="0" x2="0" y2="1">
      <stop offset="0" stop-color="#ff7a9c"/>
      <stop offset="1" stop-color="#d6355f"/>
    </linearGradient>
    <linearGradient id="iWing" x1="0" y1="0" x2="0" y2="1">
      <stop offset="0" stop-color="#5a2a55"/>
      <stop offset="1" stop-color="#2c1330"/>
    </linearGradient>
  </defs>
  <ellipse cx="50" cy="92" rx="16" ry="4" fill="#000" opacity="0.18"/>
  <path d="M40 50 Q12 36 14 60 Q24 56 34 60 Q22 62 22 72 Q34 60 42 62 Z" fill="url(#iWing)" stroke="#1a0b1e" stroke-width="2.5" stroke-linejoin="round"/>
  <path d="M60 50 Q88 36 86 60 Q76 56 66 60 Q78 62 78 72 Q66 60 58 62 Z" fill="url(#iWing)" stroke="#1a0b1e" stroke-width="2.5" stroke-linejoin="round"/>
  <path d="M52 74 Q60 86 68 80 Q63 84 60 78" fill="none" stroke="#b02a4e" stroke-width="3.5" stroke-linecap="round"/>
  <path d="M38 62 Q38 76 50 76 Q62 76 62 62 Z" fill="url(#iBody)" stroke="#9c1f3e" stroke-width="3" stroke-linejoin="round"/>
  <circle cx="50" cy="44" r="20" fill="url(#iBody)" stroke="#9c1f3e" stroke-width="3.2"/>
  <path d="M36 30 Q32 18 42 24 Z" fill="#ffe14d" stroke="#9c5a1f" stroke-width="2" stroke-linejoin="round"/>
  <path d="M64 30 Q68 18 58 24 Z" fill="#ffe14d" stroke="#9c5a1f" stroke-width="2" stroke-linejoin="round"/>
  <ellipse cx="42" cy="36" rx="6" ry="4" fill="#fff" opacity="0.4" transform="rotate(-20 42 36)"/>
  <path d="M36 40 L46 44" stroke="#9c1f3e" stroke-width="3" stroke-linecap="round"/>
  <path d="M64 40 L54 44" stroke="#9c1f3e" stroke-width="3" stroke-linecap="round"/>
  <ellipse cx="42" cy="48" rx="5" ry="6" fill="#fff" stroke="#9c1f3e" stroke-width="1.5"/>
  <ellipse cx="58" cy="48" rx="5" ry="6" fill="#fff" stroke="#9c1f3e" stroke-width="1.5"/>
  <circle cx="43" cy="49" r="2.8" fill="#222"/>
  <circle cx="57" cy="49" r="2.8" fill="#222"/>
  <circle cx="44" cy="48" r="1" fill="#fff"/>
  <circle cx="58" cy="48" r="1" fill="#fff"/>
  <path d="M43 56 Q50 62 57 56" fill="none" stroke="#9c1f3e" stroke-width="2.5" stroke-linecap="round"/>
</svg>