<svg viewBox="0 0 100 100" xmlns="http://www.w3.org/2000/svg">
  <defs>
    <linearGradient id="gemT" x1="0" y1="0" x2="1" y2="1">
      <stop offset="0" stop-color="#9af0ff"/>
      <stop offset="1" stop-color="#3ac6e6"/>
    </linearGradient>
    <linearGradient id="gemB" x1="0" y1="0" x2="0" y2="1">
      <stop offset="0" stop-color="#3ac6e6"/>
      <stop offset="1" stop-color="#1273c4"/>
    </linearGradient>
  </defs>
  <ellipse cx="50" cy="90" rx="20" ry="4" fill="#000" opacity="0.15"/>
  <path d="M30 38 L50 22 L70 38 L60 38 L50 28 L40 38 Z" fill="url(#gemT)" stroke="#0d4f8a" stroke-width="3" stroke-linejoin="round"/>
  <polygon points="40,38 50,28 60,38" fill="#cdf6ff" stroke="#0d4f8a" stroke-width="2.5" stroke-linejoin="round"/>
  <path d="M30 38 L70 38 L50 82 Z" fill="url(#gemB)" stroke="#0d4f8a" stroke-width="3.2" stroke-linejoin="round"/>
  <path d="M40 38 L50 82 L60 38" fill="none" stroke="#0d4f8a" stroke-width="2" opacity="0.7"/>
  <polygon points="30,38 40,38 50,82" fill="#7fe6ff" opacity="0.5"/>
  <polygon points="60,38 70,38 50,82" fill="#0e5fa8" opacity="0.4"/>
  <path d="M44 40 L48 40 L50 64 Z" fill="#ffffff" opacity="0.5"/>
  <path d="M82 30 l2 6 6 2 -6 2 -2 6 -2 -6 -6 -2 6 -2 Z" fill="#fff" stroke="#cdf6ff" stroke-width="1"/>
  <path d="M20 56 l1.5 4 4 1.5 -4 1.5 -1.5 4 -1.5 -4 -4 -1.5 4 -1.5 Z" fill="#fff"/>
  <circle cx="74" cy="60" r="2.5" fill="#fff"/>
</svg>