<svg viewBox="0 0 100 100" xmlns="http://www.w3.org/2000/svg">
  <defs>
    <linearGradient id="wRobe" x1="0" y1="0" x2="0" y2="1"><stop offset="0" stop-color="#ff8a6a"/><stop offset="1" stop-color="#c4342f"/></linearGradient>
    <linearGradient id="wHelm" x1="0" y1="0" x2="0" y2="1"><stop offset="0" stop-color="#d6dde6"/><stop offset="1" stop-color="#8d98a6"/></linearGradient>
    <linearGradient id="wShield" x1="0" y1="0" x2="0" y2="1"><stop offset="0" stop-color="#ffd86a"/><stop offset="1" stop-color="#d49426"/></linearGradient>
  </defs>
  <ellipse cx="50" cy="92" rx="25" ry="5" fill="#000" opacity="0.18"/>
  <path d="M28 70 Q50 60 72 70 L78 90 Q50 96 22 90 Z" fill="url(#wRobe)" stroke="#7a1f18" stroke-width="3" stroke-linejoin="round"/>
  <path d="M50 64 L50 90" stroke="#7a1f18" stroke-width="2.5" opacity="0.5"/>
  <circle cx="50" cy="49" r="22" fill="#ffe0bd" stroke="#3a2a1a" stroke-width="3"/>
  <path d="M28 46 Q26 22 50 20 Q74 22 72 46 Q72 38 50 36 Q28 38 28 46 Z" fill="url(#wHelm)" stroke="#5a6470" stroke-width="3" stroke-linejoin="round"/>
  <rect x="46.5" y="40" width="7" height="20" rx="3" fill="#b7c0cb" stroke="#5a6470" stroke-width="2"/>
  <path d="M44 20 Q50 6 56 20 Z" fill="#ff5a5a" stroke="#7a1f18" stroke-width="2.5" stroke-linejoin="round"/>
  <ellipse cx="40" cy="50" rx="4.6" ry="6" fill="#2a2a3a"/>
  <ellipse cx="60" cy="50" rx="4.6" ry="6" fill="#2a2a3a"/>
  <circle cx="41.4" cy="48" r="1.7" fill="#fff"/>
  <circle cx="61.4" cy="48" r="1.7" fill="#fff"/>
  <circle cx="33" cy="57" r="3.3" fill="#ff9ab0" opacity="0.8"/>
  <circle cx="67" cy="57" r="3.3" fill="#ff9ab0" opacity="0.8"/>
  <path d="M44 60 Q50 64 56 60" fill="none" stroke="#3a2a1a" stroke-width="2.5" stroke-linecap="round"/>
  <path d="M70 52 Q86 56 86 70 Q86 84 70 86 Q74 69 70 52 Z" fill="url(#wShield)" stroke="#7a4a12" stroke-width="3" stroke-linejoin="round"/>
  <path d="M78 60 L78 78 M73 69 L84 69" stroke="#7a4a12" stroke-width="2.4" stroke-linecap="round"/>
</svg>
