<svg viewBox="0 0 100 100" xmlns="http://www.w3.org/2000/svg">
  <defs>
    <linearGradient id="aRobe" x1="0" y1="0" x2="0" y2="1"><stop offset="0" stop-color="#b06aff"/><stop offset="1" stop-color="#5a2fb0"/></linearGradient>
    <linearGradient id="aHood" x1="0" y1="0" x2="0" y2="1"><stop offset="0" stop-color="#7a3fd0"/><stop offset="1" stop-color="#3a1a78"/></linearGradient>
  </defs>
  <ellipse cx="50" cy="92" rx="23" ry="5" fill="#000" opacity="0.18"/>
  <path d="M31 70 Q50 60 69 70 L75 90 Q50 96 25 90 Z" fill="url(#aRobe)" stroke="#2c1466" stroke-width="3" stroke-linejoin="round"/>
  <path d="M50 64 L50 90" stroke="#2c1466" stroke-width="2.5" opacity="0.5"/>
  <circle cx="50" cy="49" r="21" fill="#ffe0bd" stroke="#3a2a1a" stroke-width="3"/>
  <path d="M26 50 Q22 22 50 20 Q78 22 74 50 Q66 34 50 33 Q34 34 26 50 Z" fill="url(#aHood)" stroke="#2c1466" stroke-width="3" stroke-linejoin="round"/>
  <path d="M30 56 Q50 50 70 56 L70 64 Q50 60 30 64 Z" fill="#3a1a78" stroke="#2c1466" stroke-width="2" stroke-linejoin="round"/>
  <path d="M37 50 L46 48 M63 50 L54 48" stroke="#2a2a3a" stroke-width="4" stroke-linecap="round"/>
  <circle cx="44" cy="49.5" r="2" fill="#c9a0ff"/>
  <circle cx="56" cy="49.5" r="2" fill="#c9a0ff"/>
  <line x1="72" y1="50" x2="84" y2="80" stroke="#cfd6e0" stroke-width="4" stroke-linecap="round"/>
  <path d="M82 74 L88 84 L80 84 Z" fill="#eef2f8" stroke="#5a6470" stroke-width="1.6" stroke-linejoin="round"/>
</svg>
